<svg width="100" height="100" viewBox="0 0 100 100" fill="none" xmlns="http://www.w3.org/2000/svg">
<rect x="1" y="1" width="98" height="98" fill="white" stroke="#055205" stroke-width="2"/>
<path d="M25.7656 77H15.6758V26.5859H50.9727V36.6758H25.7656V46.7656H40.8828V56.8555H25.7656V77ZM61.8359 91.3438V81.6758L67.1797 81.7461C68.1172 81.7461 69.0195 81.5938 69.8867 81.2891C70.7539 80.9844 71.5508 80.5625 72.2773 80.0234C73.0273 79.4844 73.6836 78.8398 74.2461 78.0898C74.8086 77.3633 75.2656 76.5664 75.6172 75.6992C74.5625 76.1445 73.4844 76.5898 72.3828 77.0352C71.3047 77.4805 70.2148 77.7031 69.1133 77.7031C66.793 77.7031 64.6133 77.293 62.5742 76.4727C60.5352 75.6523 58.7422 74.4922 57.1953 72.9922C55.6719 71.4688 54.4648 69.6289 53.5742 67.4727C52.707 65.293 52.2734 62.8555 52.2734 60.1602V39.3477H61.8359V60.1602C61.8359 61.4961 62.0234 62.668 62.3984 63.6758C62.7969 64.6602 63.3242 65.4922 63.9805 66.1719C64.6367 66.8281 65.3984 67.3203 66.2656 67.6484C67.1562 67.9766 68.1055 68.1406 69.1133 68.1406C70.0977 68.1406 71.0234 67.918 71.8906 67.4727C72.7812 67.0039 73.5547 66.3945 74.2109 65.6445C74.8672 64.8945 75.3828 64.0508 75.7578 63.1133C76.1328 62.1523 76.3203 61.168 76.3203 60.1602V39.3477H85.9883V72.2539C85.9648 74.9023 85.4492 77.3867 84.4414 79.707C83.4336 82.0273 82.0508 84.0547 80.293 85.7891C78.5586 87.5234 76.5312 88.8945 74.2109 89.9023C71.8906 90.9102 69.4062 91.4141 66.7578 91.4141L61.8359 91.3438Z" fill="#055205"/>
</svg>
